Untitled.ufo
<glyph name="exclam" format="1">
  <advance width="1024"/>
  <unicode hex="0021"/>
  <outline>
    <contour>
      <point x="384" y="0" type="line" smooth="no"/>
      <point x="384" y="128" type="line" smooth="no"/>
      <point x="512" y="128" type="line" smooth="no"/>
      <point x="512" y="0" type="line" smooth="no"/>
    </contour>
    <contour>
      <point x="384" y="384" type="line" smooth="no"/>
      <point x="384" y="1408" type="line" smooth="no"/>
      <point x="512" y="1408" type="line" smooth="no"/>
      <point x="512" y="384" type="line" smooth="no"/>
    </contour>
  </outline>
</glyph>
<glyph name="quotesingle" format="1">
  <advance width="1024"/>
  <unicode hex="0027"/>
  <outline>
    <contour>
      <point x="347" y="1024" type="line" smooth="no"/>
      <point x="256" y="1115" type="line" smooth="no"/>
      <point x="549" y="1408" type="line" smooth="no"/>
      <point x="640" y="1317" type="line" smooth="no"/>
    </contour>
  </outline>
</glyph>
<glyph name="parenright" format="1">
  <advance width="1024"/>
  <unicode hex="0029"/>
  <outline>
    <contour>
      <point x="347" y="0" type="line" smooth="no"/>
      <point x="256" y="91" type="line" smooth="no"/>
      <point x="512" y="347" type="line" smooth="no"/>
      <point x="512" y="1061" type="line" smooth="no"/>
      <point x="256" y="1317" type="line" smooth="no"/>
      <point x="347" y="1408" type="line" smooth="no"/>
      <point x="640" y="1115" type="line" smooth="no"/>
      <point x="640" y="293" type="line" smooth="no"/>
    </contour>
  </outline>
</glyph>
<glyph name="comma" format="1">
  <advance width="1024"/>
  <unicode hex="002c"/>
  <outline>
    <contour>
      <point x="347" y="-256" type="line" smooth="no"/>
      <point x="256" y="-165" type="line" smooth="no"/>
      <point x="549" y="128" type="line" smooth="no"/>
      <point x="640" y="37" type="line" smooth="no"/>
    </contour>
  </outline>
</glyph>
<glyph name="colon" format="1">
  <advance width="1024"/>
  <unicode hex="003a"/>
  <outline>
    <contour>
      <point x="384" y="256" type="line" smooth="no"/>
      <point x="384" y="384" type="line" smooth="no"/>
      <point x="512" y="384" type="line" smooth="no"/>
      <point x="512" y="256" type="line" smooth="no"/>
    </contour>
    <contour>
      <point x="384" y="1024" type="line" smooth="no"/>
      <point x="384" y="1152" type="line" smooth="no"/>
      <point x="512" y="1152" type="line" smooth="no"/>
      <point x="512" y="1024" type="line" smooth="no"/>
    </contour>
  </outline>
</glyph>
<glyph name="semicolon" format="1">
  <advance width="1024"/>
  <unicode hex="003b"/>
  <outline>
    <contour>
      <point x="347" y="128" type="line" smooth="no"/>
      <point x="256" y="219" type="line" smooth="no"/>
      <point x="421" y="384" type="line" smooth="no"/>
      <point x="512" y="293" type="line" smooth="no"/>
    </contour>
    <contour>
      <point x="384" y="1024" type="line" smooth="no"/>
      <point x="384" y="1152" type="line" smooth="no"/>
      <point x="512" y="1152" type="line" smooth="no"/>
      <point x="512" y="1024" type="line" smooth="no"/>
    </contour>
  </outline>
</glyph>
<glyph name="equal" format="1">
  <advance width="1024"/>
  <unicode hex="003d"/>
  <outline>
    <contour>
      <point x="0" y="384" type="line" smooth="no"/>
      <point x="0" y="512" type="line" smooth="no"/>
      <point x="896" y="512" type="line" smooth="no"/>
      <point x="896" y="384" type="line" smooth="no"/>
    </contour>
    <contour>
      <point x="0" y="768" type="line" smooth="no"/>
      <point x="0" y="896" type="line" smooth="no"/>
      <point x="896" y="896" type="line" smooth="no"/>
      <point x="896" y="768" type="line" smooth="no"/>
    </contour>
  </outline>
</glyph>
<glyph name="greater" format="1">
  <advance width="1024"/>
  <unicode hex="003e"/>
  <outline>
    <contour>
      <point x="347" y="256" type="line" smooth="no"/>
      <point x="256" y="347" type="line" smooth="no"/>
      <point x="613" y="704" type="line" smooth="no"/>
      <point x="256" y="1061" type="line" smooth="no"/>
      <point x="347" y="1152" type="line" smooth="no"/>
      <point x="795" y="704" type="line" smooth="no"/>
    </contour>
  </outline>
</glyph>
<glyph name="B" format="1">
  <advance width="1024"/>
  <unicode hex="0042"/>
  <outline>
    <contour>
      <point x="0" y="0" type="line" smooth="no"/>
      <point x="0" y="1408" type="line" smooth="no"/>
      <point x="603" y="1408" type="line" smooth="no"/>
      <point x="896" y="1115" type="line" smooth="no"/>
      <point x="896" y="933" type="line" smooth="no"/>
      <point x="667" y="704" type="line" smooth="no"/>
      <point x="896" y="475" type="line" smooth="no"/>
      <point x="896" y="293" type="line" smooth="no"/>
      <point x="603" y="0" type="line" smooth="no"/>
    </contour>
    <contour>
      <point x="128" y="128" type="line" smooth="no"/>
      <point x="549" y="128" type="line" smooth="no"/>
      <point x="768" y="347" type="line" smooth="no"/>
      <point x="768" y="421" type="line" smooth="no"/>
      <point x="549" y="640" type="line" smooth="no"/>
      <point x="128" y="640" type="line" smooth="no"/>
    </contour>
    <contour>
      <point x="128" y="768" type="line" smooth="no"/>
      <point x="549" y="768" type="line" smooth="no"/>
      <point x="768" y="987" type="line" smooth="no"/>
      <point x="768" y="1061" type="line" smooth="no"/>
      <point x="549" y="1280" type="line" smooth="no"/>
      <point x="128" y="1280" type="line" smooth="no"/>
    </contour>
  </outline>
</glyph>
<glyph name="M" format="1">
  <advance width="1024"/>
  <unicode hex="004d"/>
  <outline>
    <contour>
      <point x="0" y="0" type="line" smooth="no"/>
      <point x="0" y="1408" type="line" smooth="no"/>
      <point x="91" y="1408" type="line" smooth="no"/>
      <point x="448" y="1051" type="line" smooth="no"/>
      <point x="805" y="1408" type="line" smooth="no"/>
      <point x="896" y="1408" type="line" smooth="no"/>
      <point x="896" y="0" type="line" smooth="no"/>
      <point x="768" y="0" type="line" smooth="no"/>
      <point x="768" y="1189" type="line" smooth="no"/>
      <point x="448" y="869" type="line" smooth="no"/>
      <point x="128" y="1189" type="line" smooth="no"/>
      <point x="128" y="0" type="line" smooth="no"/>
    </contour>
  </outline>
</glyph>
<glyph name="T" format="1">
  <advance width="1024"/>
  <unicode hex="0054"/>
  <outline>
    <contour>
      <point x="384" y="0" type="line" smooth="no"/>
      <point x="384" y="1280" type="line" smooth="no"/>
      <point x="0" y="1280" type="line" smooth="no"/>
      <point x="0" y="1408" type="line" smooth="no"/>
      <point x="896" y="1408" type="line" smooth="no"/>
      <point x="896" y="1280" type="line" smooth="no"/>
      <point x="512" y="1280" type="line" smooth="no"/>
      <point x="512" y="0" type="line" smooth="no"/>
    </contour>
  </outline>
</glyph>
<glyph name="V" format="1">
  <advance width="1024"/>
  <unicode hex="0056"/>
  <outline>
    <contour>
      <point x="448" y="-27" type="line" smooth="no"/>
      <point x="0" y="421" type="line" smooth="no"/>
      <point x="0" y="1408" type="line" smooth="no"/>
      <point x="128" y="1408" type="line" smooth="no"/>
      <point x="128" y="475" type="line" smooth="no"/>
      <point x="448" y="155" type="line" smooth="no"/>
      <point x="768" y="475" type="line" smooth="no"/>
      <point x="768" y="1408" type="line" smooth="no"/>
      <point x="896" y="1408" type="line" smooth="no"/>
      <point x="896" y="421" type="line" smooth="no"/>
    </contour>
  </outline>
</glyph>
<glyph name="W" format="1">
  <advance width="1024"/>
  <unicode hex="0057"/>
  <outline>
    <contour>
      <point x="0" y="0" type="line" smooth="no"/>
      <point x="0" y="1408" type="line" smooth="no"/>
      <point x="128" y="1408" type="line" smooth="no"/>
      <point x="128" y="219" type="line" smooth="no"/>
      <point x="448" y="539" type="line" smooth="no"/>
      <point x="768" y="219" type="line" smooth="no"/>
      <point x="768" y="1408" type="line" smooth="no"/>
      <point x="896" y="1408" type="line" smooth="no"/>
      <point x="896" y="0" type="line" smooth="no"/>
      <point x="805" y="0" type="line" smooth="no"/>
      <point x="448" y="357" type="line" smooth="no"/>
      <point x="91" y="0" type="line" smooth="no"/>
    </contour>
  </outline>
</glyph>
<glyph name="b" format="1">
  <advance width="1024"/>
  <unicode hex="0062"/>
  <outline>
    <contour>
      <point x="128" y="0" type="line" smooth="no"/>
      <point x="128" y="1408" type="line" smooth="no"/>
      <point x="256" y="1408" type="line" smooth="no"/>
      <point x="256" y="896" type="line" smooth="no"/>
      <point x="603" y="896" type="line" smooth="no"/>
      <point x="768" y="731" type="line" smooth="no"/>
      <point x="768" y="165" type="line" smooth="no"/>
      <point x="603" y="0" type="line" smooth="no"/>
    </contour>
    <contour>
      <point x="256" y="128" type="move" smooth="no"/>
    </contour>
    <contour>
      <point x="256" y="128" type="line" smooth="no"/>
      <point x="549" y="128" type="line" smooth="no"/>
      <point x="640" y="219" type="line" smooth="no"/>
      <point x="640" y="677" type="line" smooth="no"/>
      <point x="549" y="768" type="line" smooth="no"/>
      <point x="256" y="768" type="line" smooth="no"/>
    </contour>
  </outline>
</glyph>
<glyph name="i" format="1">
  <advance width="1024"/>
  <unicode hex="0069"/>
  <outline>
    <contour>
      <point x="128" y="0" type="line" smooth="no"/>
      <point x="128" y="128" type="line" smooth="no"/>
      <point x="384" y="128" type="line" smooth="no"/>
      <point x="384" y="768" type="line" smooth="no"/>
      <point x="256" y="768" type="line" smooth="no"/>
      <point x="256" y="896" type="line" smooth="no"/>
      <point x="512" y="896" type="line" smooth="no"/>
      <point x="512" y="128" type="line" smooth="no"/>
      <point x="768" y="128" type="line" smooth="no"/>
      <point x="768" y="0" type="line" smooth="no"/>
    </contour>
    <contour>
      <point x="384" y="1152" type="line" smooth="no"/>
      <point x="384" y="1280" type="line" smooth="no"/>
      <point x="512" y="1280" type="line" smooth="no"/>
      <point x="512" y="1152" type="line" smooth="no"/>
    </contour>
  </outline>
</glyph>
<glyph name="n" format="1">
  <advance width="1024"/>
  <unicode hex="006e"/>
  <outline>
    <contour>
      <point x="128" y="0" type="line" smooth="no"/>
      <point x="128" y="896" type="line" smooth="no"/>
      <point x="603" y="896" type="line" smooth="no"/>
      <point x="768" y="731" type="line" smooth="no"/>
      <point x="768" y="0" type="line" smooth="no"/>
      <point x="640" y="0" type="line" smooth="no"/>
      <point x="640" y="677" type="line" smooth="no"/>
      <point x="549" y="768" type="line" smooth="no"/>
      <point x="256" y="768" type="line" smooth="no"/>
      <point x="256" y="0" type="line" smooth="no"/>
    </contour>
  </outline>
</glyph>
<glyph name="s" format="1">
  <advance width="1024"/>
  <unicode hex="0073"/>
  <outline>
    <contour>
      <point x="293" y="0" type="line" smooth="no"/>
      <point x="128" y="165" type="line" smooth="no"/>
      <point x="219" y="256" type="line" smooth="no"/>
      <point x="347" y="128" type="line" smooth="no"/>
      <point x="549" y="128" type="line" smooth="no"/>
      <point x="640" y="219" type="line" smooth="no"/>
      <point x="640" y="293" type="line" smooth="no"/>
      <point x="549" y="384" type="line" smooth="no"/>
      <point x="293" y="384" type="line" smooth="no"/>
      <point x="128" y="549" type="line" smooth="no"/>
      <point x="128" y="731" type="line" smooth="no"/>
      <point x="293" y="896" type="line" smooth="no"/>
      <point x="603" y="896" type="line" smooth="no"/>
      <point x="768" y="731" type="line" smooth="no"/>
      <point x="677" y="640" type="line" smooth="no"/>
      <point x="549" y="768" type="line" smooth="no"/>
      <point x="347" y="768" type="line" smooth="no"/>
      <point x="256" y="677" type="line" smooth="no"/>
      <point x="256" y="603" type="line" smooth="no"/>
      <point x="347" y="512" type="line" smooth="no"/>
      <point x="603" y="512" type="line" smooth="no"/>
      <point x="768" y="347" type="line" smooth="no"/>
      <point x="768" y="165" type="line" smooth="no"/>
      <point x="603" y="0" type="line" smooth="no"/>
    </contour>
  </outline>
</glyph>
<glyph name="u" format="1">
  <advance width="1024"/>
  <unicode hex="0075"/>
  <outline>
    <contour>
      <point x="293" y="0" type="line" smooth="no"/>
      <point x="128" y="165" type="line" smooth="no"/>
      <point x="128" y="896" type="line" smooth="no"/>
      <point x="256" y="896" type="line" smooth="no"/>
      <point x="256" y="219" type="line" smooth="no"/>
      <point x="347" y="128" type="line" smooth="no"/>
      <point x="549" y="128" type="line" smooth="no"/>
      <point x="640" y="219" type="line" smooth="no"/>
      <point x="640" y="896" type="line" smooth="no"/>
      <point x="768" y="896" type="line" smooth="no"/>
      <point x="768" y="165" type="line" smooth="no"/>
      <point x="603" y="0" type="line" smooth="no"/>
    </contour>
  </outline>
</glyph>
<glyph name="w" format="1">
  <advance width="1024"/>
  <unicode hex="0077"/>
  <outline>
    <contour>
      <point x="128" y="0" type="line" smooth="no"/>
      <point x="128" y="896" type="line" smooth="no"/>
      <point x="256" y="896" type="line" smooth="no"/>
      <point x="256" y="128" type="line" smooth="no"/>
      <point x="384" y="128" type="line" smooth="no"/>
      <point x="384" y="896" type="line" smooth="no"/>
      <point x="512" y="896" type="line" smooth="no"/>
      <point x="512" y="128" type="line" smooth="no"/>
      <point x="549" y="128" type="line" smooth="no"/>
      <point x="640" y="219" type="line" smooth="no"/>
      <point x="640" y="896" type="line" smooth="no"/>
      <point x="768" y="896" type="line" smooth="no"/>
      <point x="768" y="165" type="line" smooth="no"/>
      <point x="603" y="0" type="line" smooth="no"/>
    </contour>
  </outline>
</glyph>
<glyph name="bar" format="1">
  <advance width="1024"/>
  <unicode hex="007c"/>
  <outline>
    <contour>
      <point x="384" y="0" type="line" smooth="no"/>
      <point x="384" y="1408" type="line" smooth="no"/>
      <point x="512" y="1408" type="line" smooth="no"/>
      <point x="512" y="0" type="line" smooth="no"/>
    </contour>
  </outline>
</glyph>
<glyph name="braceright" format="1">
  <advance width="1024"/>
  <unicode hex="007d"/>
  <outline>
    <contour>
      <point x="347" y="0" type="line" smooth="no"/>
      <point x="256" y="91" type="line" smooth="no"/>
      <point x="384" y="219" type="line" smooth="no"/>
      <point x="384" y="603" type="line" smooth="no"/>
      <point x="485" y="704" type="line" smooth="no"/>
      <point x="384" y="805" type="line" smooth="no"/>
      <point x="384" y="1189" type="line" smooth="no"/>
      <point x="256" y="1317" type="line" smooth="no"/>
      <point x="347" y="1408" type="line" smooth="no"/>
      <point x="512" y="1243" type="line" smooth="no"/>
      <point x="512" y="859" type="line" smooth="no"/>
      <point x="667" y="704" type="line" smooth="no"/>
      <point x="512" y="549" type="line" smooth="no"/>
      <point x="512" y="165" type="line" smooth="no"/>
    </contour>
  </outline>
</glyph>
